<?xml version="1.0" encoding="utf-8"?>
<!-- Generator: Adobe Illustrator 28.0.0, SVG Export Plug-In . SVG Version: 6.00 Build 0)  -->
<svg version="1.1" id="Calque_1" xmlns="http://www.w3.org/2000/svg" xmlns:xlink="http://www.w3.org/1999/xlink" x="0px" y="0px"
	 viewBox="0 0 500 500" style="enable-background:new 0 0 500 500;" xml:space="preserve">
<style type="text/css">
	.st0{fill:#83C291;}
</style>
<g>
	<path class="st0" d="M169.46,407.58c2.26-9.49,4.87-18.86,7.69-28.15c-0.51-25.78-5.56-51.57-14.75-75.91
		c-3.1-8.22-6.65-16.3-10.74-24.11c-0.67-1.27-1.35-2.54-2.05-3.8c-0.3-0.54-0.61-1.09-0.92-1.63c-0.04-0.07-0.02-0.03-0.04-0.08
		c-0.03-0.04-0.01-0.01-0.04-0.07c-0.46-0.77-0.92-1.54-1.4-2.29c-4.24-6.52,1.22-8.61,5.5-2.02c7.19,11.06,16.59,25.83,23.56,42.11
		c6.25,14.59,9.61,25.77,11.39,36.54c7.79-21.2,16.62-41.97,25.91-62.45c0.13-0.28,0.27-0.55,0.4-0.82
		c-0.12-22.07-4.03-44.2-11.39-65.2c-2.55-7.29-5.5-14.46-8.93-21.41c-0.56-1.13-1.13-2.26-1.72-3.38
		c-0.25-0.48-0.51-0.97-0.77-1.45c-0.03-0.06-0.01-0.03-0.04-0.07c-0.02-0.04-0.01-0.01-0.04-0.06c-0.39-0.68-0.77-1.37-1.19-2.04
		c-3.59-5.82,1.25-7.54,4.87-1.66c6.09,9.87,14.03,23.04,19.82,37.48c5.92,14.79,8.63,25.6,9.73,36.38
		c11.28-22.95,23.22-45.52,35.88-67.68c0.27-16.06-1.85-32.16-6.49-47.53c-1.7-5.63-3.7-11.19-6.07-16.58
		c-0.39-0.88-0.78-1.75-1.19-2.62c-0.18-0.38-0.36-0.75-0.54-1.13c-0.02-0.04-0.01-0.02-0.02-0.05c-0.02-0.03-0.01-0.01-0.03-0.05
		c-0.27-0.53-0.54-1.07-0.83-1.59c-2.52-4.52,1.18-5.78,3.73-1.21c4.28,7.67,9.87,17.9,13.78,29.09
		c3.85,11.02,5.58,19.16,6.15,27.15c1.84-3.12,3.62-6.28,5.48-9.39c17.16-28.58,35.2-56.64,54.72-83.66
		c1.72-2.38,5.41-0.1,4.07,2.51l-32.43,62.96c6.29-4.05,13.43-7.46,23.68-10.93c11.22-3.81,22.72-5.71,31.4-7.06
		c5.17-0.8,6.46,2.89,1.34,3.68c-0.59,0.09-1.18,0.21-1.76,0.32c-0.05,0.01-0.02,0-0.06,0.01c-0.03,0.01-0.01,0-0.05,0.01
		c-0.41,0.09-0.81,0.18-1.22,0.27c-0.94,0.21-1.87,0.44-2.8,0.68c-5.7,1.45-11.31,3.3-16.8,5.43
		c-15.55,6.04-30.05,14.71-42.89,25.37l-3.99,7.74c-8.75,17.47-17.72,34.79-26.29,52.3c13.88-8.29,26-13.25,48.25-16.82
		c15.36-2.46,30.75-2.41,42.34-2.26c6.9,0.09,7.91,5.12,1.08,5.04c-0.79-0.01-1.58,0.01-2.36,0.03c-0.06,0-0.03,0-0.07,0
		c-0.05,0-0.01,0-0.08,0c-0.55,0.03-1.1,0.05-1.64,0.08c-1.26,0.07-2.52,0.16-3.78,0.26c-7.72,0.63-15.39,1.79-22.95,3.34
		c-24.73,5.07-48.43,14.69-69.32,28.41c-0.14,0.09-0.29,0.09-0.43,0.17c-7.16,14.61-14.24,29.26-20.91,44.07
		c-4.83,10.29-9.49,20.65-14.02,31.06c10.58-8.57,22.16-15.31,40.81-22.58c16.5-6.43,33.62-10.07,46.55-12.68
		c7.7-1.56,10.03,3.8,2.41,5.34c-0.88,0.18-1.75,0.39-2.62,0.6c-0.07,0.02-0.03,0.01-0.09,0.02c-0.05,0.01-0.01,0-0.08,0.02
		c-0.6,0.16-1.21,0.32-1.81,0.49c-1.39,0.38-2.77,0.78-4.14,1.2c-8.44,2.56-16.69,5.69-24.73,9.23
		c-25.26,11.13-48.42,26.74-67.89,45.93c-8.12,19.39-15.13,39.16-21.5,59.06c-1.56,5.2-3.06,10.41-4.47,15.65
		c35-2.16,107.43-18.91,156.68-114.49c67.04-130.13,38.93-246.68,15.1-258.96c-23.83-12.28-135.05,32.49-202.09,162.62
		c-67.04,130.13,9.86,210.51,9.86,210.51s2.26,0.31,6.21,0.49C166.56,420.72,167.92,414.12,169.46,407.58z"/>
</g>
</svg>
